<svg width="1333.961" height="101.442" viewBox="0 0 1333.961 101.442" xmlns="http://www.w3.org/2000/svg">
	<g id="svgGroup" stroke-linecap="round" fill-rule="evenodd" font-size="9pt" stroke="#000" stroke-width="0.25mm" fill="none" style="stroke:#000;stroke-width:0.25mm;fill:none">
		<path d="M 74.341 22.852 L 69.873 22.852 L 39.185 52.515 A 7.024 7.024 0 0 1 39.561 52.479 Q 40.1 52.442 40.943 52.442 A 20.234 20.234 0 0 1 48.471 53.794 A 18.411 18.411 0 0 1 56.25 59.766 A 34.11 34.11 0 0 1 59.52 64.9 A 39.227 39.227 0 0 1 60.242 66.358 A 86.558 86.558 0 0 1 61.579 69.362 Q 62.732 72.08 64.014 75.513 Q 64.288 76.198 65.364 78.968 A 2569.962 2569.962 0 0 1 65.515 79.358 Q 66.441 81.741 67.344 83.545 A 29.951 29.951 0 0 0 67.896 84.595 Q 69.365 87.308 71.068 88.625 A 5.493 5.493 0 0 0 74.487 89.868 L 76.538 89.868 A 8.608 8.608 0 0 1 77.793 89.953 Q 78.431 90.047 78.937 90.246 A 3.107 3.107 0 0 1 80.09 91.004 Q 81.152 92.139 81.152 94.849 A 10.913 10.913 0 0 1 81.078 96.177 Q 80.87 97.86 80.09 98.694 A 3.105 3.105 0 0 1 78.94 99.45 Q 77.978 99.829 76.539 99.829 L 70.532 99.829 A 10.778 10.778 0 0 1 63.39 97.04 Q 60.413 94.5 57.935 89.649 Q 56.187 86.154 53.839 80.191 A 244.456 244.456 0 0 1 53.613 79.614 Q 51.929 75.147 50.537 72.07 A 37.217 37.217 0 0 0 48.732 68.566 A 30.342 30.342 0 0 0 47.461 66.577 Q 45.703 64.087 43.03 62.769 A 12.811 12.811 0 0 0 38.728 61.543 A 15.919 15.919 0 0 0 36.987 61.45 Q 33.911 61.45 31.055 62.549 Q 28.198 63.648 26.001 65.772 L 23.804 67.896 L 23.804 89.868 L 35.669 89.868 A 8.608 8.608 0 0 1 36.924 89.953 Q 37.562 90.047 38.068 90.246 A 3.107 3.107 0 0 1 39.221 91.004 Q 40.283 92.139 40.283 94.849 A 10.913 10.913 0 0 1 40.208 96.177 Q 40.001 97.86 39.221 98.694 A 3.105 3.105 0 0 1 38.071 99.45 Q 37.109 99.829 35.67 99.829 L 4.614 99.829 A 8.608 8.608 0 0 1 3.359 99.744 Q 2.722 99.65 2.216 99.451 A 3.107 3.107 0 0 1 1.062 98.694 Q 0 97.559 0 94.849 A 10.913 10.913 0 0 1 0.075 93.52 Q 0.282 91.837 1.062 91.004 A 3.105 3.105 0 0 1 2.212 90.248 Q 3.174 89.868 4.614 89.868 L 12.818 89.868 L 12.818 22.852 L 4.614 22.852 A 8.608 8.608 0 0 1 3.359 22.767 Q 2.722 22.673 2.216 22.474 A 3.107 3.107 0 0 1 1.062 21.716 Q 0 20.581 0 17.871 A 10.913 10.913 0 0 1 0.075 16.543 Q 0.282 14.86 1.062 14.026 A 3.105 3.105 0 0 1 2.212 13.27 Q 3.174 12.891 4.614 12.891 L 30.542 12.891 A 8.608 8.608 0 0 1 31.797 12.976 Q 32.435 13.07 32.941 13.269 A 3.107 3.107 0 0 1 34.094 14.026 Q 35.156 15.161 35.156 17.871 A 10.913 10.913 0 0 1 35.081 19.2 Q 34.874 20.883 34.094 21.716 A 3.105 3.105 0 0 1 32.944 22.472 Q 31.982 22.852 30.543 22.852 L 23.804 22.852 L 23.804 54.273 L 55.884 22.852 L 50.61 22.852 A 8.608 8.608 0 0 1 49.355 22.767 Q 48.718 22.673 48.212 22.474 A 3.107 3.107 0 0 1 47.058 21.716 Q 45.996 20.581 45.996 17.871 A 10.913 10.913 0 0 1 46.071 16.543 Q 46.278 14.86 47.058 14.026 A 3.105 3.105 0 0 1 48.208 13.27 Q 49.171 12.891 50.61 12.891 L 74.341 12.891 A 8.608 8.608 0 0 1 75.596 12.976 Q 76.234 13.07 76.74 13.269 A 3.107 3.107 0 0 1 77.893 14.026 Q 78.955 15.161 78.955 17.871 A 10.913 10.913 0 0 1 78.88 19.2 Q 78.673 20.883 77.893 21.716 A 3.105 3.105 0 0 1 76.743 22.472 Q 75.781 22.852 74.342 22.852 Z" id="0" vector-effect="non-scaling-stroke"/>
		<path d="M 112.061 8.716 L 112.061 45.191 A 40.228 40.228 0 0 1 117.197 38.919 A 31.576 31.576 0 0 1 123.084 34.314 Q 129.346 30.542 136.597 30.542 A 25.874 25.874 0 0 1 142.459 31.178 A 20.131 20.131 0 0 1 148.169 33.435 A 18.987 18.987 0 0 1 155.546 41.412 A 22.861 22.861 0 0 1 155.713 41.748 Q 158.35 47.168 158.35 54.419 L 158.35 89.868 L 164.356 89.868 A 8.608 8.608 0 0 1 165.611 89.953 Q 166.248 90.047 166.754 90.246 A 3.107 3.107 0 0 1 167.908 91.004 Q 168.97 92.139 168.97 94.849 A 10.913 10.913 0 0 1 168.895 96.177 Q 168.688 97.86 167.908 98.694 A 3.105 3.105 0 0 1 166.758 99.45 Q 165.795 99.829 164.356 99.829 L 140.625 99.829 A 8.608 8.608 0 0 1 139.37 99.744 Q 138.732 99.65 138.226 99.451 A 3.107 3.107 0 0 1 137.073 98.694 Q 136.011 97.559 136.011 94.849 A 10.913 10.913 0 0 1 136.086 93.52 Q 136.293 91.837 137.073 91.004 A 3.105 3.105 0 0 1 138.223 90.248 Q 139.185 89.868 140.624 89.868 L 147.363 89.868 L 147.363 55.518 A 22.925 22.925 0 0 0 147.009 51.356 Q 146.575 49.008 145.61 47.138 A 12.083 12.083 0 0 0 144.36 45.191 A 9.697 9.697 0 0 0 138.449 41.659 A 14.921 14.921 0 0 0 135.498 41.382 A 20.532 20.532 0 0 0 123.889 44.971 A 25.004 25.004 0 0 0 116.343 52.956 A 30.294 30.294 0 0 0 115.283 54.859 A 29.62 29.62 0 0 0 112.156 66.296 A 35.697 35.697 0 0 0 112.061 68.921 L 112.061 89.868 L 118.799 89.868 A 8.608 8.608 0 0 1 120.054 89.953 Q 120.692 90.047 121.198 90.246 A 3.107 3.107 0 0 1 122.351 91.004 Q 123.413 92.139 123.413 94.849 A 10.913 10.913 0 0 1 123.338 96.177 Q 123.131 97.86 122.351 98.694 A 3.105 3.105 0 0 1 121.201 99.45 Q 120.239 99.829 118.8 99.829 L 95.068 99.829 A 8.608 8.608 0 0 1 93.813 99.744 Q 93.176 99.65 92.67 99.451 A 3.107 3.107 0 0 1 91.516 98.694 Q 90.454 97.559 90.454 94.849 A 10.913 10.913 0 0 1 90.529 93.52 Q 90.736 91.837 91.516 91.004 A 3.105 3.105 0 0 1 92.666 90.248 Q 93.629 89.868 95.068 89.868 L 101.074 89.868 L 101.074 13.696 L 94.336 13.696 A 8.608 8.608 0 0 1 93.081 13.612 Q 92.443 13.517 91.937 13.318 A 3.107 3.107 0 0 1 90.784 12.561 Q 89.722 11.426 89.722 8.716 A 10.913 10.913 0 0 1 89.797 7.387 Q 90.004 5.704 90.784 4.871 A 3.105 3.105 0 0 1 91.934 4.115 Q 92.896 3.736 94.335 3.735 L 107.446 3.735 A 8.608 8.608 0 0 1 108.701 3.82 Q 109.339 3.915 109.845 4.114 A 3.107 3.107 0 0 1 110.999 4.871 Q 112.061 6.006 112.061 8.716 Z" id="1" vector-effect="non-scaling-stroke"/>
		<path d="M 246.826 54.932 L 246.826 84.082 A 10.121 10.121 0 0 0 247.033 86.23 Q 247.71 89.33 250.593 89.789 A 6.8 6.8 0 0 0 251.66 89.868 L 254.224 89.868 A 8.608 8.608 0 0 1 255.479 89.953 Q 256.116 90.047 256.622 90.246 A 3.107 3.107 0 0 1 257.776 91.004 Q 258.838 92.139 258.838 94.849 A 10.913 10.913 0 0 1 258.763 96.177 Q 258.556 97.86 257.776 98.694 A 3.105 3.105 0 0 1 256.626 99.45 Q 255.664 99.829 254.224 99.829 L 249.536 99.829 A 15.906 15.906 0 0 1 245.371 99.306 A 12.725 12.725 0 0 1 241.37 97.449 A 10.569 10.569 0 0 1 237.453 92.237 A 14.36 14.36 0 0 1 236.939 90.454 A 46.235 46.235 0 0 1 224.917 98.17 A 43.729 43.729 0 0 1 223.938 98.584 A 38.849 38.849 0 0 1 209.107 101.441 A 36.87 36.87 0 0 1 202.344 100.848 A 28.148 28.148 0 0 1 196.033 98.914 A 21.237 21.237 0 0 1 189.767 94.729 A 19.661 19.661 0 0 1 187.134 91.553 Q 183.911 86.719 183.911 80.054 A 25.452 25.452 0 0 1 184.797 73.129 A 17.629 17.629 0 0 1 192.188 62.952 A 30.965 30.965 0 0 1 202.003 58.721 Q 206.079 57.706 210.849 57.484 A 58.64 58.64 0 0 1 213.574 57.422 A 66.612 66.612 0 0 1 235.84 61.157 L 235.84 54.932 Q 235.84 50.169 234.046 47.101 A 9.831 9.831 0 0 0 231.848 44.495 Q 228.108 41.372 220.092 41.175 A 44.736 44.736 0 0 0 218.994 41.162 A 43.415 43.415 0 0 0 210.871 41.957 A 51.596 51.596 0 0 0 207.568 42.7 A 55.897 55.897 0 0 0 196.289 46.948 A 6.799 6.799 0 0 1 195.404 47.344 Q 194.668 47.608 194.019 47.608 A 3.308 3.308 0 0 1 191.772 46.701 Q 190.783 45.822 189.99 44.092 A 12.37 12.37 0 0 1 189.57 43.063 Q 189.185 41.972 189.185 41.162 A 3.975 3.975 0 0 1 190.757 37.937 A 6.576 6.576 0 0 1 191.895 37.207 A 57.884 57.884 0 0 1 205.115 32.263 A 59.702 59.702 0 0 1 219.287 30.542 Q 233.057 30.542 239.942 36.694 Q 246.826 42.847 246.826 54.932 Z M 235.84 79.028 L 235.84 71.045 A 63.55 63.55 0 0 0 227.979 69.065 A 73.871 73.871 0 0 0 225.147 68.591 A 78.731 78.731 0 0 0 213.648 67.749 A 39.762 39.762 0 0 0 208.503 68.061 Q 203.627 68.698 200.354 70.642 A 9.439 9.439 0 0 0 195.684 77.416 A 13.913 13.913 0 0 0 195.484 79.834 A 12.367 12.367 0 0 0 195.982 83.44 A 9.42 9.42 0 0 0 199.182 88.147 A 12.38 12.38 0 0 0 203.381 90.301 Q 206.057 91.113 209.546 91.113 Q 224.121 91.113 235.84 79.028 Z" id="2" vector-effect="non-scaling-stroke"/>
		<path d="M 315.454 8.716 L 315.454 89.868 L 338.965 89.868 A 8.608 8.608 0 0 1 340.22 89.953 Q 340.858 90.047 341.364 90.246 A 3.107 3.107 0 0 1 342.517 91.004 Q 343.579 92.139 343.579 94.849 A 10.913 10.913 0 0 1 343.504 96.177 Q 343.297 97.86 342.517 98.694 A 3.105 3.105 0 0 1 341.367 99.45 Q 340.405 99.829 338.966 99.829 L 281.543 99.829 A 8.608 8.608 0 0 1 280.288 99.744 Q 279.65 99.65 279.144 99.451 A 3.107 3.107 0 0 1 277.991 98.694 Q 276.929 97.559 276.929 94.849 A 10.913 10.913 0 0 1 277.004 93.52 Q 277.211 91.837 277.991 91.004 A 3.105 3.105 0 0 1 279.141 90.248 Q 280.103 89.868 281.542 89.868 L 304.468 89.868 L 304.468 13.696 L 284.473 13.696 A 8.608 8.608 0 0 1 283.218 13.612 Q 282.58 13.517 282.074 13.318 A 3.107 3.107 0 0 1 280.921 12.561 Q 279.859 11.426 279.859 8.716 A 10.913 10.913 0 0 1 279.933 7.387 Q 280.141 5.704 280.921 4.871 A 3.105 3.105 0 0 1 282.071 4.115 Q 283.033 3.736 284.472 3.735 L 310.84 3.735 A 8.608 8.608 0 0 1 312.095 3.82 Q 312.733 3.915 313.239 4.114 A 3.107 3.107 0 0 1 314.392 4.871 Q 315.454 6.006 315.454 8.716 Z" id="3" vector-effect="non-scaling-stroke"/>
		<path d="M 429.199 68.701 L 376.172 68.701 A 33.526 33.526 0 0 0 377.096 75.291 Q 378.063 79.142 379.992 82.057 A 17.767 17.767 0 0 0 382.654 85.217 A 19.486 19.486 0 0 0 390.661 89.67 Q 393.609 90.533 397.127 90.749 A 39.377 39.377 0 0 0 399.536 90.82 Q 406.275 90.82 412.866 89.099 A 53.259 53.259 0 0 0 419.415 86.95 A 41.137 41.137 0 0 0 424.439 84.522 A 6.799 6.799 0 0 1 425.323 84.126 Q 426.06 83.862 426.709 83.862 Q 429.273 83.862 430.884 87.744 Q 431.424 89.004 431.522 90.067 A 5.029 5.029 0 0 1 431.543 90.527 A 4.5 4.5 0 0 1 429.73 94.18 A 7.851 7.851 0 0 1 428.32 95.068 A 49.302 49.302 0 0 1 422.168 97.65 Q 419.044 98.732 415.469 99.572 A 80.595 80.595 0 0 1 414.99 99.683 A 69.148 69.148 0 0 1 399.536 101.441 A 48.2 48.2 0 0 1 390.778 100.684 Q 385.433 99.697 381.067 97.42 A 30.27 30.27 0 0 1 380.64 97.192 Q 372.803 92.944 368.701 84.961 A 35.956 35.956 0 0 1 365.385 75.03 A 49.537 49.537 0 0 1 364.6 65.991 A 41.737 41.737 0 0 1 365.824 55.689 A 34.289 34.289 0 0 1 369.068 47.461 Q 373.535 39.404 381.445 34.973 A 34.82 34.82 0 0 1 394.889 30.786 A 43.411 43.411 0 0 1 399.536 30.542 Q 410.156 30.542 417.664 34.827 A 29.173 29.173 0 0 1 429.199 46.692 A 39.19 39.19 0 0 1 433.058 57.92 A 49.703 49.703 0 0 1 433.814 64.16 Q 433.814 66.433 432.929 67.485 A 2.5 2.5 0 0 1 432.752 67.676 Q 431.69 68.701 429.199 68.701 Z M 376.904 58.447 L 421.655 58.447 A 25.744 25.744 0 0 0 419.869 52.53 A 18.321 18.321 0 0 0 414.588 45.593 Q 409.729 41.7 401.788 41.227 A 37.925 37.925 0 0 0 399.536 41.162 A 29.131 29.131 0 0 0 392.761 41.91 A 21.045 21.045 0 0 0 384.631 45.74 Q 378.735 50.317 376.904 58.447 Z" id="4" vector-effect="non-scaling-stroke"/>
		<path d="M 518.994 8.716 L 518.994 89.868 L 525 89.868 A 8.608 8.608 0 0 1 526.255 89.953 Q 526.893 90.047 527.399 90.246 A 3.107 3.107 0 0 1 528.552 91.004 Q 529.614 92.139 529.614 94.849 A 10.913 10.913 0 0 1 529.539 96.177 Q 529.332 97.86 528.552 98.694 A 3.105 3.105 0 0 1 527.402 99.45 Q 526.44 99.829 525.001 99.829 L 513.355 99.829 A 8.608 8.608 0 0 1 512.1 99.744 Q 511.462 99.65 510.956 99.451 A 3.107 3.107 0 0 1 509.802 98.694 Q 508.74 97.559 508.74 94.849 L 508.74 88.989 A 34.893 34.893 0 0 1 502.4 95.409 A 30.514 30.514 0 0 1 498.047 98.218 A 27.865 27.865 0 0 1 484.79 101.441 A 32.927 32.927 0 0 1 474.49 99.87 A 29.475 29.475 0 0 1 468.53 97.156 Q 461.353 92.871 457.251 84.851 A 36.549 36.549 0 0 1 453.826 74.333 A 49.227 49.227 0 0 1 453.15 65.991 A 48.292 48.292 0 0 1 454.021 56.597 A 36.078 36.078 0 0 1 457.251 47.131 Q 461.353 39.111 468.53 34.827 A 30.528 30.528 0 0 1 482.549 30.609 A 37.064 37.064 0 0 1 484.79 30.542 A 27.617 27.617 0 0 1 505.5 39.712 A 39.888 39.888 0 0 1 508.008 42.627 L 508.008 13.696 L 496.143 13.696 A 8.608 8.608 0 0 1 494.888 13.612 Q 494.25 13.517 493.744 13.318 A 3.107 3.107 0 0 1 492.59 12.561 Q 491.528 11.426 491.528 8.716 A 10.913 10.913 0 0 1 491.603 7.387 Q 491.811 5.704 492.59 4.871 A 3.105 3.105 0 0 1 493.741 4.115 Q 494.703 3.736 496.142 3.735 L 514.38 3.735 A 8.608 8.608 0 0 1 515.635 3.82 Q 516.273 3.915 516.779 4.114 A 3.107 3.107 0 0 1 517.932 4.871 Q 518.994 6.006 518.994 8.716 Z M 485.523 41.382 A 22.841 22.841 0 0 0 479.858 42.055 A 17.972 17.972 0 0 0 474.317 44.495 A 19.32 19.32 0 0 0 467.739 51.986 A 23.552 23.552 0 0 0 467.175 53.174 A 28.314 28.314 0 0 0 465.127 60.378 A 37.396 37.396 0 0 0 464.722 65.991 A 36.482 36.482 0 0 0 465.297 72.62 A 27.807 27.807 0 0 0 467.175 78.809 A 20.788 20.788 0 0 0 470.877 84.554 A 18.742 18.742 0 0 0 474.317 87.488 A 18.5 18.5 0 0 0 481.907 90.341 A 24.322 24.322 0 0 0 485.523 90.601 A 24.744 24.744 0 0 0 492.382 89.68 A 21.236 21.236 0 0 0 497.131 87.671 Q 502.222 84.741 505.115 79.175 Q 508.008 73.609 508.008 65.991 A 33.873 33.873 0 0 0 507.454 59.719 A 24.881 24.881 0 0 0 505.115 52.808 Q 502.222 47.241 497.131 44.312 A 22.06 22.06 0 0 0 488.112 41.503 A 27.215 27.215 0 0 0 485.523 41.382 Z" id="5" vector-effect="non-scaling-stroke"/>
		<path d="M 678.003 17.651 L 703.858 89.868 L 708.325 89.868 A 8.608 8.608 0 0 1 709.58 89.953 Q 710.218 90.047 710.724 90.246 A 3.107 3.107 0 0 1 711.878 91.004 Q 712.94 92.139 712.94 94.849 A 10.913 10.913 0 0 1 712.865 96.177 Q 712.657 97.86 711.878 98.694 A 3.105 3.105 0 0 1 710.727 99.45 Q 709.765 99.829 708.326 99.829 L 682.398 99.829 A 8.608 8.608 0 0 1 681.143 99.744 Q 680.505 99.65 679.999 99.451 A 3.107 3.107 0 0 1 678.845 98.694 Q 677.783 97.559 677.783 94.849 A 10.913 10.913 0 0 1 677.858 93.52 Q 678.065 91.837 678.845 91.004 A 3.105 3.105 0 0 1 679.996 90.248 Q 680.958 89.868 682.397 89.868 L 692.285 89.868 L 686.279 72.437 L 650.757 72.437 L 644.678 89.868 L 653.54 89.868 A 8.608 8.608 0 0 1 654.795 89.953 Q 655.433 90.047 655.939 90.246 A 3.107 3.107 0 0 1 657.092 91.004 Q 658.154 92.139 658.154 94.849 A 10.913 10.913 0 0 1 658.079 96.177 Q 657.872 97.86 657.092 98.694 A 3.105 3.105 0 0 1 655.942 99.45 Q 654.98 99.829 653.541 99.829 L 629.077 99.829 A 8.608 8.608 0 0 1 627.822 99.744 Q 627.185 99.65 626.679 99.451 A 3.107 3.107 0 0 1 625.525 98.694 Q 624.463 97.559 624.463 94.849 A 10.913 10.913 0 0 1 624.538 93.52 Q 624.745 91.837 625.525 91.004 A 3.105 3.105 0 0 1 626.675 90.248 Q 627.637 89.868 629.077 89.868 L 633.179 89.868 L 657.422 22.852 L 643.726 22.852 A 8.608 8.608 0 0 1 642.471 22.767 Q 641.833 22.673 641.327 22.474 A 3.107 3.107 0 0 1 640.173 21.716 Q 639.111 20.581 639.111 17.871 A 10.913 10.913 0 0 1 639.186 16.543 Q 639.394 14.86 640.173 14.026 A 3.105 3.105 0 0 1 641.324 13.27 Q 642.286 12.891 643.725 12.891 L 670.606 12.891 A 12.395 12.395 0 0 1 672.486 13.025 Q 674.152 13.281 675.33 14.026 A 5.93 5.93 0 0 1 677.177 15.913 Q 677.645 16.655 677.981 17.591 A 10.548 10.548 0 0 1 678.003 17.651 Z M 669.287 22.852 L 667.896 22.852 L 654.199 62.476 L 682.91 62.476 L 669.287 22.852 Z" id="7" vector-effect="non-scaling-stroke"/>
		<path d="M 765.161 8.716 L 765.161 89.868 L 788.672 89.868 A 8.608 8.608 0 0 1 789.927 89.953 Q 790.565 90.047 791.071 90.246 A 3.107 3.107 0 0 1 792.224 91.004 Q 793.286 92.139 793.286 94.849 A 10.913 10.913 0 0 1 793.211 96.177 Q 793.004 97.86 792.224 98.694 A 3.105 3.105 0 0 1 791.074 99.45 Q 790.112 99.829 788.673 99.829 L 731.25 99.829 A 8.608 8.608 0 0 1 729.995 99.744 Q 729.357 99.65 728.851 99.451 A 3.107 3.107 0 0 1 727.698 98.694 Q 726.636 97.559 726.636 94.849 A 10.913 10.913 0 0 1 726.711 93.52 Q 726.918 91.837 727.698 91.004 A 3.105 3.105 0 0 1 728.848 90.248 Q 729.81 89.868 731.249 89.868 L 754.175 89.868 L 754.175 13.696 L 734.18 13.696 A 8.608 8.608 0 0 1 732.925 13.612 Q 732.287 13.517 731.781 13.318 A 3.107 3.107 0 0 1 730.628 12.561 Q 729.566 11.426 729.566 8.716 A 10.913 10.913 0 0 1 729.64 7.387 Q 729.848 5.704 730.628 4.871 A 3.105 3.105 0 0 1 731.778 4.115 Q 732.74 3.736 734.179 3.735 L 760.547 3.735 A 8.608 8.608 0 0 1 761.802 3.82 Q 762.44 3.915 762.946 4.114 A 3.107 3.107 0 0 1 764.099 4.871 Q 765.161 6.006 765.161 8.716 Z" id="8" vector-effect="non-scaling-stroke"/>
		<path d="M 883.887 99.829 L 860.156 99.829 A 8.608 8.608 0 0 1 858.901 99.744 Q 858.264 99.65 857.758 99.451 A 3.107 3.107 0 0 1 856.604 98.694 Q 855.542 97.559 855.542 94.849 A 10.913 10.913 0 0 1 855.617 93.52 Q 855.824 91.837 856.604 91.004 A 3.105 3.105 0 0 1 857.754 90.248 Q 858.716 89.868 860.156 89.868 L 865.43 89.868 L 847.046 68.042 L 833.716 79.761 L 833.716 89.868 L 839.063 89.868 A 8.608 8.608 0 0 1 840.318 89.953 Q 840.955 90.047 841.461 90.246 A 3.107 3.107 0 0 1 842.615 91.004 Q 843.677 92.139 843.677 94.849 A 10.913 10.913 0 0 1 843.602 96.177 Q 843.395 97.86 842.615 98.694 A 3.105 3.105 0 0 1 841.465 99.45 Q 840.503 99.829 839.063 99.829 L 814.6 99.829 A 8.608 8.608 0 0 1 813.345 99.744 Q 812.707 99.65 812.201 99.451 A 3.107 3.107 0 0 1 811.047 98.694 Q 809.985 97.559 809.985 94.849 A 10.913 10.913 0 0 1 810.06 93.52 Q 810.268 91.837 811.047 91.004 A 3.105 3.105 0 0 1 812.198 90.248 Q 813.16 89.868 814.599 89.868 L 822.73 89.868 L 822.73 13.696 L 813.135 13.696 A 8.608 8.608 0 0 1 811.88 13.612 Q 811.242 13.517 810.736 13.318 A 3.107 3.107 0 0 1 809.583 12.561 Q 808.521 11.426 808.521 8.716 A 10.913 10.913 0 0 1 808.596 7.387 Q 808.803 5.704 809.583 4.871 A 3.105 3.105 0 0 1 810.733 4.115 Q 811.695 3.736 813.134 3.735 L 829.102 3.735 A 8.608 8.608 0 0 1 830.357 3.82 Q 830.994 3.915 831.5 4.114 A 3.107 3.107 0 0 1 832.654 4.871 Q 833.716 6.006 833.716 8.716 L 833.716 66.724 L 861.621 42.114 L 856.421 42.114 A 8.608 8.608 0 0 1 855.166 42.029 Q 854.528 41.935 854.022 41.736 A 3.107 3.107 0 0 1 852.869 40.979 Q 851.807 39.844 851.807 37.134 A 10.913 10.913 0 0 1 851.882 35.805 Q 852.089 34.122 852.869 33.289 A 3.105 3.105 0 0 1 854.019 32.533 Q 854.981 32.154 856.42 32.153 L 880.884 32.153 A 8.608 8.608 0 0 1 882.139 32.238 Q 882.777 32.333 883.283 32.532 A 3.107 3.107 0 0 1 884.436 33.289 Q 885.498 34.424 885.498 37.134 A 10.913 10.913 0 0 1 885.423 38.462 Q 885.216 40.145 884.436 40.979 A 3.105 3.105 0 0 1 883.286 41.735 Q 882.324 42.114 880.885 42.114 L 876.563 42.114 L 855.029 61.084 L 879.639 89.868 L 883.887 89.868 A 8.608 8.608 0 0 1 885.142 89.953 Q 885.78 90.047 886.285 90.246 A 3.107 3.107 0 0 1 887.439 91.004 Q 888.501 92.139 888.501 94.849 A 10.913 10.913 0 0 1 888.426 96.177 Q 888.219 97.86 887.439 98.694 A 3.105 3.105 0 0 1 886.289 99.45 Q 885.327 99.829 883.888 99.829 Z" id="9" vector-effect="non-scaling-stroke"/>
		<path d="M 921.533 8.716 L 921.533 45.191 A 40.228 40.228 0 0 1 926.669 38.919 A 31.576 31.576 0 0 1 932.556 34.314 Q 938.818 30.542 946.069 30.542 A 25.874 25.874 0 0 1 951.932 31.178 A 20.131 20.131 0 0 1 957.642 33.435 A 18.987 18.987 0 0 1 965.019 41.412 A 22.861 22.861 0 0 1 965.186 41.748 Q 967.822 47.168 967.822 54.419 L 967.822 89.868 L 973.828 89.868 A 8.608 8.608 0 0 1 975.083 89.953 Q 975.721 90.047 976.227 90.246 A 3.107 3.107 0 0 1 977.38 91.004 Q 978.443 92.139 978.443 94.849 A 10.913 10.913 0 0 1 978.368 96.177 Q 978.16 97.86 977.38 98.694 A 3.105 3.105 0 0 1 976.23 99.45 Q 975.268 99.829 973.829 99.829 L 950.098 99.829 A 8.608 8.608 0 0 1 948.843 99.744 Q 948.205 99.65 947.699 99.451 A 3.107 3.107 0 0 1 946.546 98.694 Q 945.484 97.559 945.484 94.849 A 10.913 10.913 0 0 1 945.558 93.52 Q 945.766 91.837 946.546 91.004 A 3.105 3.105 0 0 1 947.696 90.248 Q 948.658 89.868 950.097 89.868 L 956.836 89.868 L 956.836 55.518 A 22.925 22.925 0 0 0 956.481 51.356 Q 956.047 49.008 955.083 47.138 A 12.083 12.083 0 0 0 953.833 45.191 A 9.697 9.697 0 0 0 947.922 41.659 A 14.921 14.921 0 0 0 944.971 41.382 A 20.532 20.532 0 0 0 933.362 44.971 A 25.004 25.004 0 0 0 925.816 52.956 A 30.294 30.294 0 0 0 924.756 54.859 A 29.62 29.62 0 0 0 921.629 66.296 A 35.697 35.697 0 0 0 921.533 68.921 L 921.533 89.868 L 928.272 89.868 A 8.608 8.608 0 0 1 929.527 89.953 Q 930.164 90.047 930.67 90.246 A 3.107 3.107 0 0 1 931.824 91.004 Q 932.886 92.139 932.886 94.849 A 10.913 10.913 0 0 1 932.811 96.177 Q 932.604 97.86 931.824 98.694 A 3.105 3.105 0 0 1 930.674 99.45 Q 929.711 99.829 928.272 99.829 L 904.541 99.829 A 8.608 8.608 0 0 1 903.286 99.744 Q 902.648 99.65 902.143 99.451 A 3.107 3.107 0 0 1 900.989 98.694 Q 899.927 97.559 899.927 94.849 A 10.913 10.913 0 0 1 900.002 93.52 Q 900.209 91.837 900.989 91.004 A 3.105 3.105 0 0 1 902.139 90.248 Q 903.101 89.868 904.54 89.868 L 910.547 89.868 L 910.547 13.696 L 903.809 13.696 A 8.608 8.608 0 0 1 902.554 13.612 Q 901.916 13.517 901.41 13.318 A 3.107 3.107 0 0 1 900.256 12.561 Q 899.194 11.426 899.194 8.716 A 10.913 10.913 0 0 1 899.269 7.387 Q 899.477 5.704 900.256 4.871 A 3.105 3.105 0 0 1 901.407 4.115 Q 902.369 3.736 903.808 3.735 L 916.919 3.735 A 8.608 8.608 0 0 1 918.174 3.82 Q 918.812 3.915 919.318 4.114 A 3.107 3.107 0 0 1 920.471 4.871 Q 921.533 6.006 921.533 8.716 Z" id="10" vector-effect="non-scaling-stroke"/>
		<path d="M 1056.299 54.932 L 1056.299 84.082 A 10.121 10.121 0 0 0 1056.506 86.23 Q 1057.182 89.33 1060.066 89.789 A 6.8 6.8 0 0 0 1061.133 89.868 L 1063.696 89.868 A 8.608 8.608 0 0 1 1064.951 89.953 Q 1065.589 90.047 1066.095 90.246 A 3.107 3.107 0 0 1 1067.249 91.004 Q 1068.311 92.139 1068.311 94.849 A 10.913 10.913 0 0 1 1068.236 96.177 Q 1068.029 97.86 1067.249 98.694 A 3.105 3.105 0 0 1 1066.098 99.45 Q 1065.136 99.829 1063.697 99.829 L 1059.009 99.829 A 15.906 15.906 0 0 1 1054.843 99.306 A 12.725 12.725 0 0 1 1050.842 97.449 A 10.569 10.569 0 0 1 1046.926 92.237 A 14.36 14.36 0 0 1 1046.411 90.454 A 46.235 46.235 0 0 1 1034.389 98.17 A 43.729 43.729 0 0 1 1033.411 98.584 A 38.849 38.849 0 0 1 1018.579 101.441 A 36.87 36.87 0 0 1 1011.817 100.848 A 28.148 28.148 0 0 1 1005.505 98.914 A 21.237 21.237 0 0 1 999.24 94.729 A 19.661 19.661 0 0 1 996.607 91.553 Q 993.384 86.719 993.384 80.054 A 25.452 25.452 0 0 1 994.27 73.129 A 17.629 17.629 0 0 1 1001.66 62.952 A 30.965 30.965 0 0 1 1011.475 58.721 Q 1015.552 57.706 1020.322 57.484 A 58.64 58.64 0 0 1 1023.047 57.422 A 66.612 66.612 0 0 1 1045.313 61.157 L 1045.313 54.932 Q 1045.313 50.169 1043.519 47.101 A 9.831 9.831 0 0 0 1041.321 44.495 Q 1037.581 41.372 1029.565 41.175 A 44.736 44.736 0 0 0 1028.467 41.162 A 43.415 43.415 0 0 0 1020.343 41.957 A 51.596 51.596 0 0 0 1017.041 42.7 A 55.897 55.897 0 0 0 1005.762 46.948 A 6.799 6.799 0 0 1 1004.877 47.344 Q 1004.14 47.608 1003.491 47.608 A 3.308 3.308 0 0 1 1001.244 46.701 Q 1000.256 45.822 999.463 44.092 A 12.37 12.37 0 0 1 999.042 43.063 Q 998.657 41.972 998.657 41.162 A 3.975 3.975 0 0 1 1000.23 37.937 A 6.576 6.576 0 0 1 1001.367 37.207 A 57.884 57.884 0 0 1 1014.588 32.263 A 59.702 59.702 0 0 1 1028.76 30.542 Q 1042.529 30.542 1049.414 36.694 Q 1056.299 42.847 1056.299 54.932 Z M 1045.313 79.028 L 1045.313 71.045 A 63.55 63.55 0 0 0 1037.452 69.065 A 73.871 73.871 0 0 0 1034.619 68.591 A 78.731 78.731 0 0 0 1023.12 67.749 A 39.762 39.762 0 0 0 1017.975 68.061 Q 1013.099 68.698 1009.827 70.642 A 9.439 9.439 0 0 0 1005.157 77.416 A 13.913 13.913 0 0 0 1004.956 79.834 A 12.367 12.367 0 0 0 1005.455 83.44 A 9.42 9.42 0 0 0 1008.655 88.147 A 12.38 12.38 0 0 0 1012.854 90.301 Q 1015.53 91.113 1019.019 91.113 Q 1033.594 91.113 1045.313 79.028 Z" id="11" vector-effect="non-scaling-stroke"/>
		<path d="M 1112.476 16.04 L 1112.476 38.013 L 1142.578 38.013 A 8.608 8.608 0 0 1 1143.833 38.098 Q 1144.471 38.192 1144.977 38.391 A 3.107 3.107 0 0 1 1146.13 39.148 Q 1147.193 40.283 1147.193 42.993 A 10.913 10.913 0 0 1 1147.118 44.322 Q 1146.91 46.005 1146.13 46.838 A 3.105 3.105 0 0 1 1144.98 47.594 Q 1144.018 47.974 1142.579 47.974 L 1112.476 47.974 L 1112.476 74.634 A 38.253 38.253 0 0 0 1112.704 78.974 Q 1113.213 83.412 1114.854 86.101 A 9.946 9.946 0 0 0 1115.369 86.865 A 8.711 8.711 0 0 0 1119.333 89.777 Q 1120.828 90.353 1122.7 90.587 A 22.117 22.117 0 0 0 1125.44 90.747 Q 1130.347 90.747 1135.767 88.77 A 51.385 51.385 0 0 0 1146.24 83.496 Q 1147.266 82.764 1148.511 82.764 Q 1151.001 82.764 1152.759 86.133 Q 1153.401 87.417 1153.61 88.469 A 4.931 4.931 0 0 1 1153.711 89.429 A 3.999 3.999 0 0 1 1152.294 92.502 A 6.562 6.562 0 0 1 1151.294 93.237 A 55.852 55.852 0 0 1 1141.563 98.063 A 64.792 64.792 0 0 1 1138.55 99.133 Q 1131.519 101.441 1125.44 101.441 Q 1117.459 101.441 1112.231 98.778 A 16.766 16.766 0 0 1 1107.239 94.959 A 20.41 20.41 0 0 1 1103.258 87.915 Q 1102.208 84.84 1101.781 81.07 A 48.83 48.83 0 0 1 1101.489 75.586 L 1101.489 47.974 L 1086.621 47.974 A 8.608 8.608 0 0 1 1085.366 47.889 Q 1084.729 47.795 1084.223 47.596 A 3.107 3.107 0 0 1 1083.069 46.838 Q 1082.007 45.703 1082.007 42.993 A 10.913 10.913 0 0 1 1082.082 41.665 Q 1082.289 39.982 1083.069 39.148 A 3.105 3.105 0 0 1 1084.219 38.392 Q 1085.181 38.013 1086.621 38.013 L 1101.489 38.013 L 1101.489 16.04 Q 1101.489 14.526 1101.924 13.523 A 3.189 3.189 0 0 1 1102.734 12.378 A 3.548 3.548 0 0 1 1103.827 11.741 Q 1104.855 11.348 1106.417 11.29 A 15.064 15.064 0 0 1 1106.983 11.279 A 13.108 13.108 0 0 1 1108.374 11.348 Q 1109.881 11.51 1110.781 12.051 A 3.069 3.069 0 0 1 1111.231 12.378 Q 1112.176 13.212 1112.404 14.891 A 8.573 8.573 0 0 1 1112.476 16.04 Z" id="12" vector-effect="non-scaling-stroke"/>
		<path d="M 1215.601 37.134 L 1215.601 89.868 L 1239.111 89.868 A 8.608 8.608 0 0 1 1240.367 89.953 Q 1241.004 90.047 1241.51 90.246 A 3.107 3.107 0 0 1 1242.664 91.004 Q 1243.726 92.139 1243.726 94.849 A 10.913 10.913 0 0 1 1243.651 96.177 Q 1243.444 97.86 1242.664 98.694 A 3.105 3.105 0 0 1 1241.513 99.45 Q 1240.551 99.829 1239.112 99.829 L 1181.69 99.829 A 8.608 8.608 0 0 1 1180.435 99.744 Q 1179.797 99.65 1179.291 99.451 A 3.107 3.107 0 0 1 1178.137 98.694 Q 1177.075 97.559 1177.075 94.849 A 10.913 10.913 0 0 1 1177.15 93.52 Q 1177.357 91.837 1178.137 91.004 A 3.105 3.105 0 0 1 1179.288 90.248 Q 1180.25 89.868 1181.689 89.868 L 1204.614 89.868 L 1204.614 42.114 L 1186.084 42.114 A 8.608 8.608 0 0 1 1184.829 42.029 Q 1184.191 41.935 1183.685 41.736 A 3.107 3.107 0 0 1 1182.532 40.979 Q 1181.47 39.844 1181.47 37.134 A 10.913 10.913 0 0 1 1181.545 35.805 Q 1181.752 34.122 1182.532 33.289 A 3.105 3.105 0 0 1 1183.682 32.533 Q 1184.644 32.154 1186.083 32.153 L 1210.986 32.153 A 8.608 8.608 0 0 1 1212.242 32.238 Q 1212.879 32.333 1213.385 32.532 A 3.107 3.107 0 0 1 1214.539 33.289 Q 1215.601 34.424 1215.601 37.134 Z M 1215.601 4.761 L 1215.601 14.282 A 7.43 7.43 0 0 1 1215.491 15.607 Q 1215.362 16.32 1215.079 16.869 A 3.106 3.106 0 0 1 1214.136 17.981 Q 1212.671 19.043 1208.643 19.043 A 24.036 24.036 0 0 1 1206.842 18.981 Q 1205.127 18.851 1204.062 18.453 A 3.84 3.84 0 0 1 1203.15 17.981 Q 1201.685 16.919 1201.685 14.282 L 1201.685 4.761 A 7.43 7.43 0 0 1 1201.794 3.437 Q 1201.924 2.723 1202.207 2.174 A 3.106 3.106 0 0 1 1203.15 1.062 Q 1204.614 0 1208.643 0 A 24.036 24.036 0 0 1 1210.444 0.062 Q 1212.158 0.192 1213.224 0.59 A 3.84 3.84 0 0 1 1214.136 1.062 Q 1215.601 2.124 1215.601 4.761 Z" id="13" vector-effect="non-scaling-stroke"/>
		<path d="M 1279.102 8.716 L 1279.102 42.627 A 34.652 34.652 0 0 1 1286.709 35.322 A 26.913 26.913 0 0 1 1302.319 30.542 A 32.927 32.927 0 0 1 1312.619 32.113 A 29.475 29.475 0 0 1 1318.579 34.827 Q 1325.757 39.111 1329.859 47.131 A 36.549 36.549 0 0 1 1333.283 57.649 A 49.227 49.227 0 0 1 1333.96 65.991 A 48.292 48.292 0 0 1 1333.089 75.385 A 36.078 36.078 0 0 1 1329.859 84.851 Q 1325.757 92.871 1318.579 97.156 A 30.528 30.528 0 0 1 1304.56 101.374 A 37.064 37.064 0 0 1 1302.319 101.441 A 27.865 27.865 0 0 1 1289.063 98.218 A 31.954 31.954 0 0 1 1280.189 91.187 A 38.272 38.272 0 0 1 1278.369 88.989 L 1278.369 94.849 A 10.913 10.913 0 0 1 1278.294 96.177 Q 1278.087 97.86 1277.307 98.694 A 3.105 3.105 0 0 1 1276.157 99.45 Q 1275.195 99.829 1273.756 99.829 L 1262.109 99.829 A 8.608 8.608 0 0 1 1260.854 99.744 Q 1260.217 99.65 1259.711 99.451 A 3.107 3.107 0 0 1 1258.557 98.694 Q 1257.495 97.559 1257.495 94.849 A 10.913 10.913 0 0 1 1257.57 93.52 Q 1257.777 91.837 1258.557 91.004 A 3.105 3.105 0 0 1 1259.708 90.248 Q 1260.67 89.868 1262.109 89.868 L 1268.115 89.868 L 1268.115 13.696 L 1260.645 13.696 A 8.608 8.608 0 0 1 1259.39 13.612 Q 1258.752 13.517 1258.246 13.318 A 3.107 3.107 0 0 1 1257.092 12.561 Q 1256.03 11.426 1256.03 8.716 A 10.913 10.913 0 0 1 1256.105 7.387 Q 1256.312 5.704 1257.092 4.871 A 3.105 3.105 0 0 1 1258.243 4.115 Q 1259.205 3.736 1260.644 3.735 L 1274.487 3.735 A 8.608 8.608 0 0 1 1275.742 3.82 Q 1276.38 3.915 1276.886 4.114 A 3.107 3.107 0 0 1 1278.04 4.871 Q 1279.102 6.006 1279.102 8.716 Z M 1301.587 41.382 A 24.744 24.744 0 0 0 1294.728 42.302 A 21.236 21.236 0 0 0 1289.978 44.312 Q 1284.888 47.241 1281.995 52.808 Q 1279.102 58.374 1279.102 65.991 A 33.873 33.873 0 0 0 1279.655 72.264 A 24.881 24.881 0 0 0 1281.995 79.175 Q 1284.888 84.741 1289.978 87.671 A 22.06 22.06 0 0 0 1298.998 90.48 A 27.215 27.215 0 0 0 1301.587 90.601 A 22.841 22.841 0 0 0 1307.252 89.928 A 17.972 17.972 0 0 0 1312.793 87.488 A 19.32 19.32 0 0 0 1319.371 79.997 A 23.552 23.552 0 0 0 1319.934 78.809 A 28.314 28.314 0 0 0 1321.983 71.605 A 37.396 37.396 0 0 0 1322.388 65.991 A 36.482 36.482 0 0 0 1321.812 59.362 A 27.807 27.807 0 0 0 1319.934 53.174 A 20.788 20.788 0 0 0 1316.233 47.429 A 18.742 18.742 0 0 0 1312.793 44.495 A 18.5 18.5 0 0 0 1305.203 41.642 A 24.322 24.322 0 0 0 1301.587 41.382 Z" id="14" vector-effect="non-scaling-stroke"/>
	</g>
</svg>